# xmcd
#
# Track frame offsets: 
#        150
#        15236
#        31152
#        49001
#        64468
#        77906
#        98156
#        120735
#        142483
#        166852
#        186248
#        204274
#        220179
#        235198
#        250847
#        265830
#        279762
#
# Disc length: 3969 seconds
#
# Revision: 4
# Processed by: cddbd v1.5.2PL0 Copyright (c) Steve Scherf et al.
# Submitted via: ExactAudioCopy v0.95a4
#
DISCID=eb0f7f11
DTITLE=Kenny Chesney - Greatest Hits II
DYEAR=2009
DGENRE=Country
TTITLE0=Out Last Night (Previously Unreleased)
TTITLE1=Living in Fast Forward
TTITLE2=Young
TTITLE3=Summertime
TTITLE4=Down the Road (with Mac Mcanally)
TTITLE5=Beer in Mexico
TTITLE6=There Goes My Life
TTITLE7=When the Sun Goes Down (Duet with Uncle Kracker)
TTITLE8=Anything But Mine
TTITLE9=Be As You Are
TTITLE10=I Go Back
TTITLE11=No Shoes, No Shirt, No Problems
TTITLE12=The Good Stuff
TTITLE13=Never Wanted Nothing More
TTITLE14=I'm Alive (Dave Matthews)
TTITLE15=This is Our Moment
TTITLE16=Ain't Back Yet
EXTD=
EXTT0=
EXTT1=
EXTT2=
EXTT3=
EXTT4=
EXTT5=
EXTT6=
EXTT7=
EXTT8=
EXTT9=
EXTT10=
EXTT11=
EXTT12=
EXTT13=
EXTT14=
EXTT15=
EXTT16=
PLAYORDER=
